<svg width="449" height="465" viewBox="0 0 449 465" fill="none" xmlns="http://www.w3.org/2000/svg">
<path fill-rule="evenodd" clip-rule="evenodd" d="M205.897 348.646L195.359 342.596L192.903 350.341L191.348 355.251L186.53 357.073L153.673 369.488L190.426 456.137H221.531L194.557 378.879L205.897 348.646ZM115.06 277.692L122.26 236.644L228.839 199.938L270.134 74.5023L270.48 73.4588L199.775 8L175.139 117.284L65.3052 170.036L59.1269 251.339L59.0438 252.421L111.552 282.262L115.06 277.692ZM337.176 120.883L351.582 134.11L364.99 104.955L358.721 98.6561L336.865 115.432L337.176 120.883ZM344.581 283.477L318.807 330.896L335.083 342.053L337.605 372.304L366.572 390.632L366.164 299.251L344.581 283.477ZM384.315 207.735L332.466 222.038L335.439 278.044L296.999 348.766L312.287 456.137H280.375L262.536 368.905L189.213 326.815L182.774 347.131L124.735 369.063L105.507 456.137H75.8748L98.4822 316.732L98.7449 316.388L147.414 253.005L246.8 223.383L309.105 52.474L322.238 45.9061L326.815 125.797L357.525 153.994L358.531 171.114L389.096 199.126L384.315 207.735Z" fill="#0098C3"/>
</svg>
